<?xml version="1.0" encoding="utf-8"?>
<!-- Generator: Adobe Illustrator 17.0.0, SVG Export Plug-In . SVG Version: 6.00 Build 0)  -->
<!DOCTYPE svg PUBLIC "-//W3C//DTD SVG 1.1//EN" "http://www.w3.org/Graphics/SVG/1.1/DTD/svg11.dtd">
<svg version="1.1" id="Layer_1" xmlns="http://www.w3.org/2000/svg" xmlns:xlink="http://www.w3.org/1999/xlink" x="0px" y="0px"
	 width="128px" height="128px" viewBox="0 0 128 128" enable-background="new 0 0 128 128" xml:space="preserve">
<ellipse fill="#E65100" cx="64" cy="64" rx="63.208" ry="63.698"/>
<ellipse fill="#FF9700" cx="64" cy="64" rx="57.864" ry="58.312"/>
<polygon fill="#FFFFFF" points="22.066,72.102 72.122,20.475 106.569,56.408 57.879,106.305 "/>
<path fill="#E0E0E0" d="M64.31,21.986L21.986,64.31c-4.011,4.011-4.011,10.537,0,14.548L32.498,89.37l-6.981,6.981
	c-1.15,1.15-1.15,3.015,0,4.166c1.15,1.15,3.015,1.15,4.166,0l6.981-6.981l5.592,5.592l-3.483,3.483c-1.15,1.15-1.15,3.015,0,4.166
	c1.15,1.15,3.015,1.15,4.166,0l3.483-3.483l2.721,2.721c4.011,4.011,10.537,4.011,14.548,0l42.324-42.324
	c4.011-4.011,4.011-10.537,0-14.548L78.858,21.986C74.847,17.975,68.321,17.975,64.31,21.986z M68.476,26.152
	c0.739-0.739,1.677-1.158,2.643-1.26l-5.381,35.049c-0.454,2.959-2.838,5.343-5.797,5.797l-35.049,5.381
	c0.102-0.966,0.521-1.904,1.26-2.643L68.476,26.152z M101.848,59.524l-42.324,42.324c-1.714,1.714-4.503,1.714-6.217,0l-2.721-2.721
	l7.843-7.843c1.15-1.15,1.15-3.015,0-4.166c-1.15-1.15-3.015-1.15-4.166,0l-7.843,7.843L28.053,76.593l32.782-5.033
	c2.738-0.42,5.208-1.733,7.1-3.625c1.892-1.892,3.205-4.363,3.625-7.1l5.033-32.782l25.255,25.255
	C103.562,55.021,103.562,57.81,101.848,59.524z"/>
</svg>
