<?xml version="1.0" encoding="utf-8"?>
<!-- Generator: Adobe Illustrator 17.0.0, SVG Export Plug-In . SVG Version: 6.00 Build 0)  -->
<!DOCTYPE svg PUBLIC "-//W3C//DTD SVG 1.1//EN" "http://www.w3.org/Graphics/SVG/1.1/DTD/svg11.dtd">
<svg version="1.1" id="Layer_1" xmlns="http://www.w3.org/2000/svg" xmlns:xlink="http://www.w3.org/1999/xlink" x="0px" y="0px"
	 width="128px" height="128px" viewBox="0 0 128 128" enable-background="new 0 0 128 128" xml:space="preserve">
<ellipse fill="#E65100" cx="64" cy="64" rx="63.208" ry="63.698"/>
<ellipse fill="#FF9700" cx="64" cy="64" rx="57.864" ry="58.312"/>
<path d="M80.346,85.049"/>
<g>
	<path fill="#FFFFFF" d="M102.029,51.744c0-2.2-1.783-3.985-3.993-3.985h-3.983v8.635h3.983c2.21,0,3.993-1.785,3.993-3.985V51.744z
		 M102.029,51.744"/>
	<path fill="#FFFFFF" d="M102.029,61.929c0-2.208-1.783-3.991-3.993-3.991h-3.983v8.632h3.983c2.21,0,3.993-1.783,3.993-3.977
		V61.929z M102.029,61.929"/>
	<path fill="#FFFFFF" d="M102.029,72.771v-0.664c0-2.202-1.783-3.985-3.993-3.985h-3.983v8.632h3.983
		C100.246,76.754,102.029,74.979,102.029,72.771L102.029,72.771z M102.029,72.771"/>
	<path fill="#FFFFFF" d="M104.099,36.717V36.17c0-2.208-1.714-3.483-3.823-2.856l-6.223,0.718v9.188l6.286-1.188
		C102.415,41.297,104.099,38.927,104.099,36.717L104.099,36.717z M104.099,36.717"/>
	<path fill="#FFFFFF" d="M80.346,85.049h8.332c2.186,0,3.946-1.769,3.946-3.953V30.441c0-2.186-1.759-3.954-3.946-3.954H62.123
		c-2.184,0-3.946,1.767-3.946,3.954v29.912h5.329V34.092c0-0.601,0.486-1.089,1.087-1.089h21.614c0.603,0,1.089,0.488,1.089,1.089
		v38.996c0,0.603-0.486,1.089-1.089,1.089H66.881v6.757c-0.146,0.486-0.295,0.888-0.295,0.888h6.919
		c-0.401-0.441-0.656-1.028-0.656-1.676c0-1.366,1.113-2.487,2.487-2.487s2.487,1.121,2.487,2.487c0,0.648-0.255,1.228-0.656,1.676
		h3.861l-0.364,1.884C80.649,83.782,80.548,84.292,80.346,85.049L80.346,85.049z"/>
	<path fill="#FFFFFF" d="M63.676,99.734c2.315-1.158,5.551-2.532,8.401-4.578c4.315-3.098,5.867-11.066,5.867-11.066H66.448
		c-2.386,5.484-7.328,10.115-7.575,10.348c-0.301,0.277-0.688,0.417-1.073,0.417c-0.425,0-0.85-0.17-1.158-0.502
		c-0.595-0.642-0.555-1.645,0.085-2.24c0.061-0.055,5.829-5.476,7.437-10.934v-8.741h13.396c2.934,0,5.314-2.208,5.314-4.942
		c0-2.726-2.386-4.934-5.314-4.934H55.637V47.119l-8.648,5.822c-2.508,1.506-5.42,4.95-6.494,7.676L26.519,98.445
		c-0.603,1.637,0.316,2.965,2.07,2.965h29.256C59.59,101.411,62.109,100.515,63.676,99.734L63.676,99.734z M63.676,99.734"/>
</g>
<rect x="26.333" y="26.487" fill="none" width="78.754" height="75.117"/>
<g>
	<rect x="65.71" y="38.556" fill="#E0E0E0" width="6.256" height="6.256"/>
	<rect x="65.71" y="46.225" fill="#E0E0E0" width="6.256" height="6.256"/>
	<rect x="65.71" y="54.137" fill="#E0E0E0" width="6.256" height="6.256"/>
	<rect x="65.71" y="35.899" fill="#E0E0E0" width="19.942" height="0.292"/>
	<rect x="73.255" y="39.295" fill="#E0E0E0" width="4.508" height="0.882"/>
	<rect x="73.255" y="41.244" fill="#E0E0E0" width="9.016" height="0.882"/>
	<rect x="73.255" y="43.219" fill="#E0E0E0" width="9.016" height="0.882"/>
	<rect x="73.255" y="46.951" fill="#E0E0E0" width="4.508" height="0.882"/>
	<rect x="73.255" y="48.899" fill="#E0E0E0" width="9.016" height="0.882"/>
	<rect x="73.255" y="50.874" fill="#E0E0E0" width="9.016" height="0.882"/>
	<rect x="73.255" y="54.863" fill="#E0E0E0" width="4.508" height="0.882"/>
	<rect x="73.255" y="56.811" fill="#E0E0E0" width="9.016" height="0.882"/>
	<rect x="73.255" y="58.786" fill="#E0E0E0" width="9.016" height="0.882"/>
</g>
</svg>
