<?xml version="1.0" encoding="utf-8"?>
<!-- Generator: Adobe Illustrator 17.0.0, SVG Export Plug-In . SVG Version: 6.00 Build 0)  -->
<!DOCTYPE svg PUBLIC "-//W3C//DTD SVG 1.1//EN" "http://www.w3.org/Graphics/SVG/1.1/DTD/svg11.dtd">
<svg version="1.1" id="Layer_1" xmlns="http://www.w3.org/2000/svg" xmlns:xlink="http://www.w3.org/1999/xlink" x="0px" y="0px"
	 width="128px" height="128px" viewBox="0 0 128 128" enable-background="new 0 0 128 128" xml:space="preserve">
<ellipse fill="#E65100" cx="64" cy="64" rx="63.208" ry="63.698"/>
<ellipse fill="#FF9700" cx="64" cy="64" rx="57.864" ry="58.312"/>
<polygon fill="#FFFFFF" points="27.13,37.719 55.986,32.335 59.161,38.094 63.835,63.152 74.006,61.255 74.18,56.814 75.903,52.083
	81.129,51.108 83.961,53.386 84.828,58.034 85.045,59.196 94.666,59.204 97.857,63.419 101.217,81.43 101.428,89.006 99.321,90.601
	42.19,101.259 36.734,98.87 29.508,60.137 37.716,55.794 37.914,52.557 35.993,48.707 27.157,47.534 "/>
<g>
	<path fill="#E0E0E0" d="M54.866,93.502c0.146,0.781-0.369,1.532-1.15,1.678l-8.484,1.583c-2.339,0.436-4.597-1.111-5.033-3.45
		l-1.055-5.656c-0.146-0.781,0.369-1.532,1.15-1.678c0.781-0.146,1.532,0.369,1.678,1.15l1.055,5.656
		c0.145,0.779,0.898,1.296,1.678,1.15l8.484-1.583C53.969,92.206,54.72,92.721,54.866,93.502L54.866,93.502z M56.175,53.461
		c-0.781,0.146-1.296,0.897-1.15,1.678l0.053,0.283c0.146,0.781,0.897,1.296,1.678,1.15c0.781-0.146,1.296-0.897,1.15-1.678
		l-0.053-0.283C57.707,53.83,56.956,53.315,56.175,53.461L56.175,53.461z M46.521,40.923l4.242-0.791
		c0.779-0.145,1.532,0.371,1.678,1.15l1.319,7.07c0.146,0.781,0.897,1.296,1.678,1.15c0.781-0.146,1.296-0.897,1.15-1.678
		l-1.319-7.07c-0.436-2.339-2.694-3.887-5.033-3.45l-4.242,0.791c-0.781,0.146-1.296,0.897-1.15,1.678
		C44.989,40.554,45.74,41.069,46.521,40.923L46.521,40.923z M93.759,74.542c-0.781,0.146-1.296,0.897-1.15,1.678l1.319,7.07
		c0.145,0.779-0.371,1.532-1.15,1.678l-4.242,0.791c-0.781,0.146-1.296,0.897-1.15,1.678c0.146,0.781,0.897,1.296,1.678,1.15
		l4.242-0.791c2.339-0.436,3.887-2.694,3.45-5.033l-1.319-7.07C95.292,74.911,94.54,74.396,93.759,74.542L93.759,74.542z
		 M60.258,91.033l-0.283,0.053c-0.781,0.146-1.296,0.897-1.15,1.678c0.146,0.781,0.897,1.296,1.678,1.15l0.283-0.053
		c0.781-0.146,1.296-0.897,1.15-1.678C61.79,91.402,61.039,90.887,60.258,91.033L60.258,91.033z M98.719,61.911l4.484,24.037
		c0.582,3.119-1.482,6.129-4.601,6.711l-56.557,10.551c-3.119,0.582-6.129-1.482-6.711-4.601l-7.369-39.501
		c-0.073-0.39,0.019-0.794,0.254-1.114c0.235-0.32,0.592-0.528,0.985-0.577l4.302-0.528c1.098-0.134,2.063-0.701,2.717-1.594
		c0.654-0.893,0.902-1.983,0.699-3.071c-0.203-1.088-0.828-2.016-1.76-2.613c-0.931-0.597-2.036-0.777-3.109-0.506l-4.203,1.059
		c-0.385,0.095-0.793,0.031-1.127-0.183c-0.334-0.214-0.565-0.557-0.638-0.948l-1.302-6.981c-0.582-3.119,1.482-6.129,4.601-6.711
		l24.037-4.484c3.119-0.582,6.129,1.482,6.711,4.601l5.012,26.864l8.304-1.549l-0.685-2.718c-0.46-1.825-0.141-3.779,0.873-5.364
		c1.015-1.584,2.658-2.691,4.507-3.036s3.781,0.095,5.299,1.206c1.518,1.112,2.519,2.821,2.749,4.688l0.341,2.782l5.476-1.022
		C95.127,56.729,98.137,58.793,98.719,61.911L98.719,61.911z M32.624,68.389l9.809-1.83c0.39-0.073,0.794,0.019,1.114,0.254
		c0.32,0.235,0.529,0.592,0.577,0.985l0.528,4.302c0.135,1.098,0.7,2.064,1.593,2.717c0.893,0.654,1.984,0.902,3.072,0.699
		c1.088-0.203,2.016-0.828,2.613-1.76c0.597-0.931,0.776-2.036,0.506-3.109l-1.059-4.203c-0.097-0.385-0.031-0.793,0.183-1.127
		c0.214-0.335,0.557-0.565,0.948-0.638l9.809-1.83l-5.012-26.864c-0.291-1.56-1.796-2.591-3.355-2.3l-24.037,4.484
		c-1.56,0.291-2.591,1.796-2.3,3.355l1.022,5.476l2.718-0.685c1.824-0.459,3.779-0.141,5.364,0.873
		c1.584,1.015,2.691,2.658,3.036,4.507c0.345,1.85-0.095,3.78-1.206,5.299c-1.112,1.518-2.82,2.519-4.688,2.748l-2.782,0.341
		L32.624,68.389z M67.792,83.87l4.302-0.528c1.098-0.134,2.064-0.7,2.717-1.593c0.654-0.893,0.902-1.984,0.699-3.072
		c-0.203-1.088-0.828-2.016-1.76-2.613c-0.931-0.597-2.037-0.777-3.109-0.506l-4.203,1.059c-0.385,0.097-0.793,0.031-1.127-0.183
		c-0.335-0.214-0.565-0.557-0.638-0.948l-1.83-9.809l-8.304,1.549l0.685,2.718c0.46,1.825,0.141,3.779-0.873,5.364
		c-1.015,1.584-2.658,2.691-4.507,3.036s-3.781-0.095-5.299-1.206c-1.518-1.112-2.52-2.821-2.749-4.688l-0.341-2.782l-8.304,1.549
		l5.012,26.864c0.291,1.56,1.796,2.591,3.355,2.3l26.864-5.012l-1.83-9.809c-0.073-0.39,0.019-0.794,0.254-1.114
		C67.041,84.127,67.398,83.919,67.792,83.87L67.792,83.87z M95.891,62.439c-0.291-1.56-1.796-2.591-3.355-2.3l-6.981,1.302
		c-0.39,0.073-0.794-0.019-1.114-0.254c-0.32-0.235-0.529-0.592-0.577-0.985L83.336,55.9c-0.135-1.098-0.7-2.064-1.593-2.717
		c-0.893-0.654-1.984-0.902-3.072-0.699s-2.016,0.828-2.613,1.76c-0.597,0.931-0.776,2.036-0.506,3.109l1.059,4.203
		c0.097,0.385,0.031,0.793-0.183,1.127c-0.214,0.335-0.557,0.565-0.948,0.638l-9.809,1.83l1.549,8.304l2.718-0.685
		c1.824-0.46,3.779-0.141,5.364,0.873c1.584,1.015,2.691,2.658,3.036,4.507c0.345,1.85-0.095,3.781-1.206,5.299
		c-1.112,1.518-2.821,2.519-4.688,2.748l-2.782,0.341l1.549,8.304l26.864-5.012c1.56-0.291,2.591-1.796,2.3-3.355L95.891,62.439z
		 M92.441,67.472c-0.781,0.146-1.296,0.897-1.15,1.678l0.053,0.283c0.146,0.781,0.897,1.296,1.678,1.15
		c0.781-0.146,1.296-0.897,1.15-1.678l-0.053-0.283C93.973,67.841,93.221,67.326,92.441,67.472L92.441,67.472z M92.441,67.472"/>
</g>
</svg>
