<?xml version="1.0" encoding="utf-8"?>
<!-- Generator: Adobe Illustrator 17.0.0, SVG Export Plug-In . SVG Version: 6.00 Build 0)  -->
<!DOCTYPE svg PUBLIC "-//W3C//DTD SVG 1.1//EN" "http://www.w3.org/Graphics/SVG/1.1/DTD/svg11.dtd">
<svg version="1.1" id="Layer_1" xmlns="http://www.w3.org/2000/svg" xmlns:xlink="http://www.w3.org/1999/xlink" x="0px" y="0px"
	 width="128px" height="128px" viewBox="0 0 128 128" enable-background="new 0 0 128 128" xml:space="preserve">
<ellipse fill="#E65100" cx="64" cy="64" rx="63.208" ry="63.698"/>
<ellipse fill="#FF9700" cx="64" cy="64" rx="57.864" ry="58.312"/>
<path fill="#FFFFFF" d="M23.633,83.583c0,2.302,1.867,4.169,4.169,4.169h43.466v-8.337H27.802
	C25.5,79.415,23.633,81.28,23.633,83.583L23.633,83.583z M23.633,83.583"/>
<path fill="#FFFFFF" d="M29.715,71.182V40.044h49.888l0.034,23.019v-0.021c0,0,1.048-4.331,5.525-5.793V39.773
	c0-2.916-2.37-5.287-5.284-5.287H29.442c-2.913,0-5.287,2.371-5.287,5.287v31.68c0,2.915,2.374,5.288,5.287,5.288h41.826v-0.424
	c0-1.547,0.891-3.769,5.244-5.135H29.715z M29.715,71.182"/>
<path fill="#FFFFFF" d="M100.063,79.429v-2.332h-0.011c-0.094-1.69-4.192-3.1-9.718-3.506c-0.017,1.099-0.434,1.837-0.612,2.16
	c3.77,0.321,6.514,1.314,6.514,2.488c0,1.436-4.1,2.599-9.16,2.599c-5.054,0-9.154-1.163-9.154-2.599c0-1.368,3.73-2.488,8.462-2.59
	c0.008-0.021,0.052-1.476-0.875-2.152c-6.361,0.22-11.304,1.74-11.403,3.6h-0.012V90.08c0,7.174,5.813,12.986,12.982,12.986
	c5.511,0,10.208-3.436,12.092-8.278c0.295,0.035,0.59,0.091,0.895,0.091c4.258,0,7.725-3.465,7.725-7.725
	C107.788,82.892,104.322,79.429,100.063,79.429L100.063,79.429z M100.063,90.571c-0.008,0-0.017-0.003-0.022-0.003
	c0.003-0.162,0.022-0.323,0.022-0.486v-6.347c1.885,0,3.417,1.534,3.417,3.419C103.48,89.036,101.948,90.571,100.063,90.571
	L100.063,90.571z M100.063,90.571"/>
</svg>
