<?xml version="1.0" encoding="utf-8"?>
<!-- Generator: Adobe Illustrator 17.0.0, SVG Export Plug-In . SVG Version: 6.00 Build 0)  -->
<!DOCTYPE svg PUBLIC "-//W3C//DTD SVG 1.1//EN" "http://www.w3.org/Graphics/SVG/1.1/DTD/svg11.dtd">
<svg version="1.1" id="Layer_1" xmlns="http://www.w3.org/2000/svg" xmlns:xlink="http://www.w3.org/1999/xlink" x="0px" y="0px"
	 width="128px" height="128px" viewBox="0 0 128 128" enable-background="new 0 0 128 128" xml:space="preserve">
<ellipse fill="#E65100" cx="64" cy="64" rx="63.208" ry="63.698"/>
<ellipse fill="#FF9700" cx="64" cy="64" rx="57.864" ry="58.312"/>
<path fill="#FFFFFF" d="M45.974,63.543h36.038c-0.597-3.297-3.485-5.801-6.955-5.801H52.929
	C49.46,57.742,46.571,60.246,45.974,63.543L45.974,63.543z M45.974,63.543"/>
<path fill="#FFFFFF" d="M78.684,40.473c0,8.112-6.575,14.687-14.687,14.687c-8.111,0-14.687-6.575-14.687-14.687
	c0-8.111,6.576-14.687,14.687-14.687C72.109,25.786,78.684,32.362,78.684,40.473L78.684,40.473z M78.684,40.473"/>
<path fill="#E0E0E0" d="M92.257,67.986c0.071-1.13-0.824-2.088-1.954-2.088H37.701c-1.146,0-2.049,0.973-1.954,2.119l2.072,26.297
	H90.53L92.257,67.986z M92.257,67.986"/>
</svg>
