<?xml version="1.0" encoding="utf-8"?>
<!-- Generator: Adobe Illustrator 17.0.0, SVG Export Plug-In . SVG Version: 6.00 Build 0)  -->
<!DOCTYPE svg PUBLIC "-//W3C//DTD SVG 1.1//EN" "http://www.w3.org/Graphics/SVG/1.1/DTD/svg11.dtd">
<svg version="1.1" id="Layer_1" xmlns="http://www.w3.org/2000/svg" xmlns:xlink="http://www.w3.org/1999/xlink" x="0px" y="0px"
	 width="128px" height="128px" viewBox="0 0 128 128" enable-background="new 0 0 128 128" xml:space="preserve">
<ellipse fill="#E65100" cx="64" cy="64" rx="63.208" ry="63.698"/>
<ellipse fill="#FF9700" cx="64" cy="64" rx="57.864" ry="58.312"/>
<g>
	<path fill="#E0E0E0" d="M94.74,90.462v-8.687c0-0.6-0.486-1.086-1.086-1.086h-1.086v-3.258c0-0.6-0.486-1.086-1.086-1.086h-1.879
		c3.61-3.161,3.974-8.649,0.813-12.259c-3.161-3.61-8.649-3.974-12.259-0.813c-3.61,3.161-3.974,8.649-0.813,12.259
		c0.253,0.289,0.524,0.56,0.813,0.813h-1.879c-0.6,0-1.086,0.486-1.086,1.086v4.344c0,0.6,0.486,1.086,1.086,1.086h1.086V93.72
		h-4.344v-2.172h1.086c0.6,0,1.086-0.486,1.086-1.086v-4.344c0-0.6-0.486-1.086-1.086-1.086h-1.086v-7.601
		c0-0.6-0.486-1.086-1.086-1.086H70.85v-2.172h1.086c0.6,0,1.086-0.486,1.086-1.086v-4.344c0-0.6-0.486-1.086-1.086-1.086H70.85
		v-2.172h1.086c0.6,0,1.086-0.486,1.086-1.086v-4.344c0-0.6-0.486-1.086-1.086-1.086H65.42v-4.344h1.086
		c6.597,0,11.945-5.348,11.945-11.945c0-0.6-0.486-1.086-1.086-1.086h-2.172c-3.895,0.006-7.542,1.911-9.773,5.104v-6.19h1.086
		c4.798,0,8.687-3.889,8.687-8.687c0-0.6-0.486-1.086-1.086-1.086h-2.172c-3.163,0.003-6.075,1.725-7.601,4.496
		c-1.526-2.771-4.438-4.493-7.601-4.496h-2.172c-0.6,0-1.086,0.486-1.086,1.086c0,4.798,3.889,8.687,8.687,8.687h1.086v6.19
		c-2.231-3.193-5.878-5.098-9.773-5.104h-2.172c-0.6,0-1.086,0.486-1.086,1.086c0,6.597,5.348,11.945,11.945,11.945h1.086v4.344
		h-6.515c-0.6,0-1.086,0.486-1.086,1.086v3.258h-1.086c-0.6,0-1.086,0.486-1.086,1.086v4.344c0,0.6,0.486,1.086,1.086,1.086h1.086
		v2.172h-1.086c-0.6,0-1.086,0.486-1.086,1.086v4.344c0,0.6,0.486,1.086,1.086,1.086h1.086v7.601c0,0.6,0.486,1.086,1.086,1.086
		h1.086v2.172h-1.086c-0.6,0-1.086,0.486-1.086,1.086v3.258h-2.172v-3.258c0-0.6-0.486-1.086-1.086-1.086h-1.086v-2.172h1.086
		c0.6,0,1.086-0.486,1.086-1.086v-4.344c0-0.6-0.486-1.086-1.086-1.086h-1.086v-7.601c0-0.6-0.486-1.086-1.086-1.086H35.014
		c-0.6,0-1.086,0.486-1.086,1.086v8.687c0,0.6,0.486,1.086,1.086,1.086H36.1v2.172h-1.086c-0.6,0-1.086,0.486-1.086,1.086v4.344
		c0,0.6,0.486,1.086,1.086,1.086H36.1v2.172h-4.344v2.172h65.155V93.72H94.74V90.462z"/>
	<path fill="#FFFFFF" d="M75.193,43.768h1.021c-0.553,4.945-4.732,8.685-9.708,8.687h-1.021
		C66.038,47.51,70.218,43.77,75.193,43.768z"/>
	<path fill="#FFFFFF" d="M71.936,32.908h0.999c-0.53,3.136-3.248,5.432-6.429,5.43h-0.999
		C66.037,35.202,68.755,32.906,71.936,32.908z"/>
	<path fill="#FFFFFF" d="M62.162,38.338c-3.181,0.002-5.898-2.293-6.429-5.43h0.999c3.181-0.002,5.898,2.293,6.429,5.43H62.162z"/>
	<path fill="#FFFFFF" d="M62.162,52.455c-4.976-0.002-9.155-3.743-9.708-8.687h1.021c4.976,0.002,9.155,3.743,9.708,8.687H62.162z"
		/>
	<rect x="79.537" y="87.204" fill="#FFFFFF" width="13.031" height="2.172"/>
	<circle fill="#FFFFFF" cx="83.881" cy="69.83" r="6.515"/>
	<rect x="77.365" y="78.517" fill="#FFFFFF" width="13.031" height="2.172"/>
	<polygon fill="#FFFFFF" points="91.482,82.861 92.568,82.861 92.568,85.032 79.537,85.032 79.537,82.861 	"/>
	<rect x="57.819" y="82.861" fill="#FFFFFF" width="13.031" height="2.172"/>
	<rect x="57.819" y="61.142" fill="#FFFFFF" width="13.031" height="2.172"/>
	<rect x="55.647" y="65.486" fill="#FFFFFF" width="13.031" height="2.172"/>
	<rect x="57.819" y="69.83" fill="#FFFFFF" width="13.031" height="2.172"/>
	<rect x="55.647" y="74.173" fill="#FFFFFF" width="13.031" height="2.172"/>
	<polygon fill="#FFFFFF" points="69.764,78.517 70.85,78.517 70.85,80.689 57.819,80.689 57.819,78.517 	"/>
	<rect x="59.991" y="87.204" fill="#FFFFFF" width="13.031" height="2.172"/>
	<rect x="36.1" y="78.517" fill="#FFFFFF" width="13.031" height="2.172"/>
	<rect x="36.1" y="74.173" fill="#FFFFFF" width="13.031" height="2.172"/>
	<rect x="38.272" y="82.861" fill="#FFFFFF" width="13.031" height="2.172"/>
	<rect x="36.1" y="87.204" fill="#FFFFFF" width="13.031" height="2.172"/>
	<rect x="38.272" y="91.548" fill="#FFFFFF" width="13.031" height="2.172"/>
	<rect x="57.819" y="91.548" fill="#FFFFFF" width="13.031" height="2.172"/>
	<rect x="79.537" y="91.548" fill="#FFFFFF" width="13.031" height="2.172"/>
	<path fill="#E0E0E0" d="M83.881,72.001v2.172c2.399,0,4.344-1.945,4.344-4.344h-2.172C86.052,71.029,85.08,72.001,83.881,72.001z"
		/>
	<path fill="#E0E0E0" d="M83.881,65.486c-2.399,0-4.344,1.945-4.344,4.344h2.172c0-1.199,0.972-2.172,2.172-2.172V65.486z"/>
	<path fill="#E0E0E0" d="M87.138,33.821c0-0.6-0.486-1.086-1.086-1.086s-1.086,0.486-1.086,1.086
		c-0.301,1.755-1.676,3.13-3.431,3.431c-0.6,0-1.086,0.486-1.086,1.086s0.486,1.086,1.086,1.086c1.755,0.301,3.13,1.676,3.431,3.431
		c0,0.6,0.486,1.086,1.086,1.086s1.086-0.486,1.086-1.086c0.301-1.755,1.676-3.13,3.431-3.431c0.6,0,1.086-0.486,1.086-1.086
		s-0.486-1.086-1.086-1.086C88.814,36.951,87.44,35.576,87.138,33.821z M86.052,39.891c-0.421-0.606-0.947-1.132-1.553-1.553
		c0.606-0.421,1.132-0.947,1.553-1.553c0.421,0.606,0.947,1.132,1.553,1.553C87,38.759,86.474,39.285,86.052,39.891z"/>
	<path fill="#E0E0E0" d="M38.098,61.142c-0.6,0-1.086,0.486-1.086,1.086s0.486,1.086,1.086,1.086
		c1.755,0.301,3.13,1.676,3.431,3.431c0,0.6,0.486,1.086,1.086,1.086s1.086-0.486,1.086-1.086c0.301-1.755,1.676-3.13,3.431-3.431
		c0.6,0,1.086-0.486,1.086-1.086s-0.486-1.086-1.086-1.086c-1.755-0.301-3.13-1.676-3.431-3.431c0-0.6-0.486-1.086-1.086-1.086
		s-1.086,0.486-1.086,1.086C41.229,59.466,39.854,60.841,38.098,61.142z M42.616,60.675c0.421,0.606,0.947,1.132,1.553,1.553
		c-0.606,0.421-1.132,0.947-1.553,1.553c-0.421-0.606-0.947-1.132-1.553-1.553C41.669,61.807,42.195,61.281,42.616,60.675z"/>
	<polygon fill="#E0E0E0" points="93.654,53.541 91.482,53.541 91.482,56.799 88.224,56.799 88.224,58.97 91.482,58.97
		91.482,62.228 93.654,62.228 93.654,58.97 96.912,58.97 96.912,56.799 93.654,56.799 	"/>
	<path fill="#E0E0E0" d="M46.96,49.197v1.086c0,3.598,2.917,6.515,6.515,6.515v-2.172c-2.399,0-4.344-1.945-4.344-4.344v-1.086
		H46.96z"/>
</g>
</svg>
